<svg width="30" height="20" viewBox="0 0 30 20" fill="none" xmlns="http://www.w3.org/2000/svg">
<rect x="0.5" y="0.5" width="28.1667" height="19" rx="5.5" fill="white" stroke="#D9D9D9"/>
<path d="M18.5986 10.2397C19.0266 10.249 19.4571 10.2208 19.8835 10.2544C20.3153 10.3349 20.4193 10.9886 20.0357 11.2026C19.774 11.3437 19.4631 11.2552 19.1793 11.28H18.5986V10.2397ZM20.131 9.0622C20.2261 9.39789 19.9025 9.6993 19.5792 9.65307H18.5986C18.6055 9.3365 18.5851 8.9929 18.6085 8.693C19.0014 8.70406 19.3978 8.67043 19.7884 8.71058C19.9562 8.75274 20.0966 8.8907 20.131 9.0622ZM22.491 4.08401C22.5092 4.72509 22.4936 5.40006 22.4988 6.05415C22.4976 8.71344 22.5014 11.3727 22.4967 14.0321C22.4795 15.0287 21.5963 15.8947 20.6065 15.9146C19.6159 15.9186 18.625 15.9152 17.6342 15.9163V11.896C18.7137 11.8905 19.7938 11.9074 20.873 11.8876C21.3736 11.8562 21.9219 11.5259 21.9452 10.975C22.0041 10.4217 21.4825 10.039 20.9873 9.97857C20.7969 9.97363 20.8024 9.92308 20.9873 9.90103C21.4596 9.79893 21.8305 9.31005 21.6916 8.82044C21.5731 8.30547 21.004 8.10616 20.5305 8.10715C19.5652 8.1006 18.5997 8.10624 17.6344 8.10433C17.6406 7.35379 17.6214 6.60245 17.6448 5.85246C17.7213 4.87382 18.6267 4.06675 19.6026 4.08426C20.5655 4.08412 21.5283 4.08412 22.491 4.08408V4.08401Z" fill="url(#paint0_linear_242_4254)"/>
<path d="M6.72538 5.954C6.75004 4.95895 7.63706 4.10005 8.62552 4.08551C9.61255 4.08247 10.5997 4.08507 11.5868 4.08419C11.5841 7.41343 11.5921 10.743 11.5827 14.0721C11.5447 15.0551 10.6673 15.8976 9.68963 15.915C8.70073 15.9186 7.71172 15.9155 6.72278 15.9165V11.7607C7.68337 11.9876 8.69069 12.0842 9.67065 11.9337C10.2564 11.8394 10.8973 11.5517 11.0956 10.944C11.2416 10.4242 11.1594 9.8771 11.1811 9.34357V8.10451H9.48522C9.4776 8.92399 9.50083 9.7449 9.47295 10.5634C9.42724 11.0665 8.92901 11.3861 8.45453 11.3691C7.86608 11.3753 6.7 10.9426 6.7 10.9426C6.69707 9.40723 6.71707 7.48442 6.72538 5.95415V5.954Z" fill="url(#paint1_linear_242_4254)"/>
<path d="M12.2192 8.60399C12.13 8.62292 12.2013 8.29991 12.1785 8.17738C12.1845 7.40263 12.1657 6.62703 12.1888 5.85283C12.2651 4.87005 13.1775 4.06097 14.1573 4.08397H17.0427C17.0399 7.41321 17.048 10.7428 17.0386 14.0719C17.0005 15.0548 16.1231 15.8973 15.1454 15.9148C14.1565 15.9185 13.1674 15.9153 12.1784 15.9163V11.363C12.8539 11.9172 13.7719 12.0035 14.6134 12.005C15.2477 12.0048 15.8784 11.907 16.4945 11.7607V10.9265C15.8002 11.2725 14.9841 11.4923 14.2144 11.2935C13.6776 11.1599 13.2879 10.641 13.2965 10.087C13.2343 9.5108 13.5721 8.9025 14.1383 8.73121C14.8413 8.51113 15.6075 8.67945 16.2664 8.96557C16.4076 9.0395 16.5509 9.13118 16.4944 8.89521V8.23954C15.3924 7.97733 14.2195 7.88085 13.1123 8.1661C12.7918 8.2565 12.4796 8.39361 12.2192 8.60406V8.60399Z" fill="url(#paint2_linear_242_4254)"/>
<defs>
<linearGradient id="paint0_linear_242_4254" x1="17.601" y1="9.74718" x2="22.4682" y2="9.74718" gradientUnits="userSpaceOnUse">
<stop stop-color="#58B03A"/>
<stop offset="1" stop-color="#55B330"/>
</linearGradient>
<linearGradient id="paint1_linear_242_4254" x1="6.6193" y1="10.1136" x2="11.507" y2="10.1136" gradientUnits="userSpaceOnUse">
<stop stop-color="#0F6EB6"/>
<stop offset="1" stop-color="#006DBA"/>
</linearGradient>
<linearGradient id="paint2_linear_242_4254" x1="12.1713" y1="9.86177" x2="17.0417" y2="9.86177" gradientUnits="userSpaceOnUse">
<stop stop-color="#DE0D3D"/>
<stop offset="1" stop-color="#E30138"/>
</linearGradient>
</defs>
</svg>
