<svg width="30" height="20" viewBox="0 0 30 20" fill="none" xmlns="http://www.w3.org/2000/svg">
<rect x="0.5" y="0.5" width="28.1667" height="19" rx="5.5" fill="white" stroke="#D9D9D9"/>
<path d="M16.746 10.106C16.746 13.283 14.2001 15.8585 11.0595 15.8585C7.91897 15.8585 5.37305 13.283 5.37305 10.106C5.37305 6.92899 7.91897 4.35352 11.0595 4.35352C14.2001 4.35352 16.746 6.92899 16.746 10.106Z" fill="#ED0006"/>
<path d="M24.123 10.106C24.123 13.283 21.577 15.8585 18.4365 15.8585C15.2959 15.8585 12.75 13.283 12.75 10.106C12.75 6.92899 15.2959 4.35352 18.4365 4.35352C21.577 4.35352 24.123 6.92899 24.123 10.106Z" fill="#0099DF"/>
<path fill-rule="evenodd" clip-rule="evenodd" d="M14.7479 14.4841C15.9706 13.429 16.7459 11.859 16.7459 10.1058C16.7459 8.35264 15.9706 6.78265 14.7479 5.72754C13.5253 6.78265 12.75 8.35264 12.75 10.1058C12.75 11.859 13.5253 13.429 14.7479 14.4841Z" fill="#6C6BBD"/>
</svg>
