<svg width="29" height="20" viewBox="0 0 29 20" fill="none" xmlns="http://www.w3.org/2000/svg">
<rect x="0.5" y="0.5" width="28" height="19" rx="5.5" fill="white" stroke="#D9D9D9"/>
<path fill-rule="evenodd" clip-rule="evenodd" d="M4.69102 7.0011L4.72459 7.00064C4.96272 6.99659 5.54468 6.98669 5.79826 7.84251C5.97776 8.44832 6.26368 9.44065 6.65604 10.8195H6.81583C7.23661 9.36582 7.52565 8.37348 7.68298 7.84251C7.93611 6.98818 8.54623 6.99656 8.84208 7.00062C8.86092 7.00088 8.87847 7.00112 8.89458 7.00112L10.9719 7.00112V13.463H8.85464V9.65491H8.71267L7.53241 13.463H5.93946L4.75921 9.65209H4.61723V13.463H2.5V7.00112L4.69102 7.0011ZM14.0122 7.00112V10.8121H14.1811L15.6168 7.67835C15.8954 7.05474 16.4894 7.00112 16.4894 7.00112H18.5383V13.463H16.3768V9.65209H16.2079L14.8004 12.7858C14.5217 13.4066 13.8996 13.463 13.8996 13.463H11.8507V7.00112H14.0122ZM23.7126 11.5381C24.7609 11.5381 25.7077 10.9262 26.0092 10.0719H19.3905V13.463H21.4459V11.5381H23.7126Z" fill="#40A548"/>
<path d="M23.8118 7.00098H19.2827C19.3905 8.43961 20.6294 9.67118 21.912 9.67118H26.152C26.3967 8.4755 25.5544 7.00098 23.8118 7.00098Z" fill="#1291D0"/>
</svg>
