<svg width="20" height="20" viewBox="0 0 20 20" fill="none" xmlns="http://www.w3.org/2000/svg">
<path d="M20 16.22C20 18.65 18.65 20 16.22 20H3.78C1.35 20 0 18.65 0 16.22V3.78C0 1.35 1.35 0 3.78 0H16.225C18.65 0 20 1.35 20 3.78V16.22Z" fill="#FFE600"/>
<path d="M12.8598 9.02471V7.11471L13.5498 6.42471V8.07971L14.1498 8.67971L16.5649 6.26471L17.1599 6.85971C17.1549 6.40971 17.0648 5.10471 15.9599 4.01971C14.7698 2.86971 13.4798 3.38971 13.0398 3.82971L10.6298 6.23971L11.2448 6.85471L9.99985 8.10971L8.75485 6.86471L9.36985 6.24971L6.95985 3.83971C6.51985 3.39971 5.22985 2.87971 4.03984 4.02971C2.93484 5.11471 2.84484 6.41971 2.83984 6.86971L3.43484 6.27471L5.84985 8.68971L6.44985 8.08971V6.43471L7.13985 7.12471V9.03471L8.10985 9.99971L3.32984 14.7797L5.21985 16.6647L9.99985 11.8897L14.7798 16.6697L16.6699 14.7847L11.8898 9.99971L12.8598 9.02471Z" fill="#2B2D34"/>
</svg>
