<svg width="20" height="20" viewBox="0 0 20 20" fill="none" xmlns="http://www.w3.org/2000/svg">
<path d="M17.6757 3.88525C18.1445 4.49943 18.5413 5.16667 18.8581 5.8736L9.86976 12.5886L6.11328 10.2021V7.33108L9.86976 9.71755L17.6757 3.88525Z" fill="#21A038"/>
<path d="M2.27963 9.99955C2.27963 9.87071 2.28273 9.74274 2.28893 9.6155L0.0123984 9.50244C0.00464982 9.66735 2.75109e-06 9.83384 2.75109e-06 10.0019C-0.000965851 11.3148 0.253844 12.6149 0.749822 13.8277C1.2458 15.0405 1.97317 16.1422 2.89022 17.0694L4.50503 15.4337C3.79911 14.7212 3.23911 13.8743 2.8572 12.9417C2.47529 12.0091 2.27901 11.0092 2.27963 9.99955Z" fill="url(#paint0_linear_242_4354)"/>
<path d="M9.86776 2.31021C9.99482 2.31021 10.1211 2.31493 10.2466 2.32121L10.3605 0.0132511C10.1973 0.00539821 10.033 0.00147226 9.86776 0.00147226C8.57168 -0.000129531 7.28814 0.257737 6.09072 0.760265C4.89329 1.26279 3.80562 2.00009 2.89014 2.92981L4.50494 4.56634C5.20804 3.85069 6.04378 3.28295 6.96413 2.89576C7.88448 2.50858 8.87123 2.30958 9.86776 2.31021Z" fill="url(#paint1_linear_242_4354)"/>
<path d="M9.86807 17.6899C9.74101 17.6899 9.61469 17.6899 9.48842 17.6797L9.37451 19.9868C9.53826 19.9952 9.7028 19.9994 9.86807 19.9994C11.1636 20.0008 12.4465 19.7428 13.6433 19.2401C14.8401 18.7374 15.9271 18 16.8418 17.0703L15.2301 15.4346C14.5269 16.1498 13.6913 16.7173 12.7711 17.1043C11.8509 17.4914 10.8644 17.6904 9.86807 17.6899Z" fill="url(#paint2_linear_242_4354)"/>
<path d="M14.1451 3.6516L16.0636 2.21845C14.3101 0.779379 12.1212 -0.0039947 9.86475 1.53189e-05V2.30954C11.3927 2.30762 12.8852 2.77558 14.1451 3.6516Z" fill="url(#paint3_linear_242_4354)"/>
<path d="M19.7351 10C19.7363 9.39923 19.6845 8.79946 19.5801 8.20801L17.4563 9.79428C17.4563 9.86264 17.4563 9.93094 17.4563 10C17.4568 11.0745 17.2345 12.1372 16.804 13.119C16.3733 14.1009 15.7439 14.9801 14.9565 15.6996L16.4885 17.4155C17.5121 16.479 18.3301 15.3349 18.8894 14.0575C19.4487 12.78 19.7368 11.3976 19.7351 10Z" fill="#21A038"/>
<path d="M9.86778 17.6901C8.80747 17.6904 7.7589 17.4651 6.78995 17.0287C5.82104 16.5924 4.95334 15.9546 4.24307 15.1567L2.55078 16.7085C3.47477 17.746 4.60362 18.5751 5.86414 19.1421C7.12465 19.7091 8.48866 20.0012 9.86778 19.9996V17.6901Z" fill="url(#paint4_linear_242_4354)"/>
<path d="M4.77933 4.29984L3.24821 2.58398C2.22429 3.52034 1.40601 4.66435 0.846424 5.94184C0.286849 7.2193 -0.0015256 8.60172 6.06958e-06 9.99943H2.27964C2.27917 8.92499 2.50145 7.86236 2.93206 6.8805C3.36267 5.89867 3.99202 5.01945 4.77933 4.29984Z" fill="url(#paint5_linear_242_4354)"/>
<defs>
<linearGradient id="paint0_linear_242_4354" x1="3.35127" y1="16.7813" x2="0.800773" y2="9.50623" gradientUnits="userSpaceOnUse">
<stop offset="0.14" stop-color="#F1E813"/>
<stop offset="0.3" stop-color="#E6E418"/>
<stop offset="0.58" stop-color="#C9DA26"/>
<stop offset="0.89" stop-color="#A2CC39"/>
</linearGradient>
<linearGradient id="paint1_linear_242_4354" x1="3.54101" y1="3.33816" x2="9.97758" y2="0.91784" gradientUnits="userSpaceOnUse">
<stop offset="0.06" stop-color="#0FA7DF"/>
<stop offset="0.54" stop-color="#0098F8"/>
<stop offset="0.92" stop-color="#0290EA"/>
</linearGradient>
<linearGradient id="paint2_linear_242_4354" x1="9.22422" y1="18.6055" x2="16.4877" y2="16.9864" gradientUnits="userSpaceOnUse">
<stop offset="0.12" stop-color="#A2CC39"/>
<stop offset="0.28" stop-color="#86C239"/>
<stop offset="0.87" stop-color="#219F38"/>
</linearGradient>
<linearGradient id="paint3_linear_242_4354" x1="9.39057" y1="0.773521" x2="15.6068" y2="2.66635" gradientUnits="userSpaceOnUse">
<stop offset="0.06" stop-color="#0290EA"/>
<stop offset="0.79" stop-color="#0C89CA"/>
</linearGradient>
<linearGradient id="paint4_linear_242_4354" x1="3.12262" y1="16.4273" x2="9.89511" y2="18.9248" gradientUnits="userSpaceOnUse">
<stop offset="0.13" stop-color="#F1E813"/>
<stop offset="0.3" stop-color="#EAE616"/>
<stop offset="0.53" stop-color="#D8DF1F"/>
<stop offset="0.8" stop-color="#BAD52D"/>
<stop offset="0.98" stop-color="#A2CC39"/>
</linearGradient>
<linearGradient id="paint5_linear_242_4354" x1="0.849249" y1="10.279" x2="3.62268" y2="3.16009" gradientUnits="userSpaceOnUse">
<stop offset="0.07" stop-color="#A2CC39"/>
<stop offset="0.26" stop-color="#81C45E"/>
<stop offset="0.92" stop-color="#0FA7DF"/>
</linearGradient>
</defs>
</svg>
