<svg width="20" height="20" viewBox="0 0 20 20" fill="none" xmlns="http://www.w3.org/2000/svg">
<path d="M19.7358 9.3531L20 8.52345L19.1408 8.5506C18.7383 8.5358 18.3506 8.4 18.0247 8.1605H18.1408C18.6642 8.158 19.1432 7.85925 19.3753 7.3901L19.7531 6.5827C19.4568 6.5852 19.1605 6.5679 18.8666 6.53085C18.5852 6.4642 18.3333 6.3111 18.1432 6.09385C17.8864 5.81975 17.5308 5.6642 17.1556 5.66175C17.0099 5.66175 16.8642 5.6864 16.7234 5.73085C16.7432 5.6642 16.7605 5.59755 16.7729 5.5284C16.8321 5.0469 16.6963 4.5605 16.3976 4.17778L15.7457 3.37531L15.3457 4.31358C15.2815 4.44692 15.1852 4.56296 15.0618 4.64691C14.9926 4.31111 14.8296 4.00494 14.5877 3.76296C14.1827 3.34815 13.6271 3.11605 13.0469 3.12099C12.9457 3.12099 12.8444 3.12839 12.7457 3.14321L11.9655 3.29629C12.0321 3.03457 12.1382 2.78519 12.2815 2.55556L12.7111 1.88642L11.6297 1.98766L11.2839 1.24691L10.6173 1.60987L10 1L9.3827 1.60987L8.71605 1.2642L8.37035 1.98766L7.2889 1.86419L7.7185 2.5358C7.86175 2.76543 7.9679 3.01482 8.03455 3.27655L7.29385 3.13087H7.26915C7.16545 3.11605 7.06175 3.10864 6.958 3.10864C6.3778 3.1037 5.8222 3.3358 5.4173 3.75061C5.17285 3.99506 5.00495 4.30617 4.93827 4.64691C4.81976 4.56543 4.72345 4.45432 4.65926 4.32345L4.25679 3.37778L3.6 4.18271C3.30617 4.56543 3.17531 5.0494 3.2321 5.5284C3.24445 5.59755 3.26173 5.6642 3.28148 5.73085C3.14074 5.6864 2.99506 5.66175 2.84939 5.66175C2.47408 5.6642 2.11852 5.81975 1.86173 6.09385C1.67408 6.30865 1.42469 6.46175 1.14568 6.53085C0.849385 6.5753 0.54815 6.5926 0.246913 6.5827L0.614815 7.40245C0.846915 7.8716 1.32593 8.17035 1.84939 8.17285H1.96543C1.64445 8.4074 1.26173 8.5432 0.8642 8.5605L0 8.52345L0.264197 9.3531C0.461729 10.0024 1.02222 10.479 1.6963 10.5654C1.62716 11.0024 1.35062 11.3802 0.955555 11.5778L0.293827 11.8469L0.649385 12.4667C0.94321 12.9235 1.44938 13.195 1.99012 13.1901C2.13086 13.1901 2.27161 13.1753 2.40987 13.1457C2.44444 13.2963 2.48889 13.4469 2.53827 13.5926C2.66173 13.9185 2.66913 14.274 2.56296 14.6049L2.24198 15.279L2.96049 15.4691C3.12099 15.5111 3.28889 15.5309 3.45432 15.5309C3.57284 15.5309 3.68889 15.5185 3.80494 15.4914C3.88889 15.4716 3.97284 15.4469 4.05185 15.4148C4.14321 15.5802 4.25926 15.7333 4.39012 15.8692C4.84938 16.3407 5.50125 16.5802 6.3284 16.5802H6.9185L5.70125 17.0864L6.6247 17.5432C6.99755 17.726 7.3778 17.8913 7.76545 18.0371L7.6543 18.358L7.97285 18.5037C8.50125 18.7111 9.06175 18.8272 9.62965 18.8469H10.3876C10.9531 18.8272 11.5111 18.7086 12.0371 18.5012L12.3457 18.358L12.2371 18.0371C12.6297 17.8864 13.0148 17.716 13.3901 17.5259L14.2963 17.0864L13.0815 16.5926H13.6741C14.5013 16.5926 15.1556 16.3457 15.6124 15.8815C15.7457 15.7457 15.8593 15.5926 15.9506 15.4271C16.0296 15.4592 16.1136 15.484 16.1975 15.5037C16.3136 15.5309 16.4296 15.5432 16.5481 15.5432C16.7136 15.5432 16.8815 15.521 17.042 15.4815L17.763 15.2914L17.4494 14.6297C17.3309 14.2938 17.3358 13.926 17.4618 13.5926C17.5136 13.4419 17.5555 13.2889 17.5901 13.1358C17.7284 13.1655 17.8716 13.1803 18.0124 13.1803C18.558 13.1852 19.0667 12.9037 19.3556 12.4395L19.7062 11.8272L19.0543 11.5605C18.6593 11.363 18.3827 10.9852 18.3136 10.5482C18.9876 10.4593 19.5482 9.9852 19.7457 9.33335L19.7358 9.3531Z" fill="white"/>
<path d="M12.9679 11.9755H7.04199V14.1977C7.04199 15.1113 7.70124 15.6792 8.67654 15.6792C9.49139 15.6792 9.70619 15.7113 10.0074 16.0125C10.1975 15.8076 10.4667 15.6915 10.7482 15.6964V15.6619L10.9358 15.0841L10.6173 14.7359C10.4889 14.7755 10.3556 14.7903 10.2222 14.7829C10.0222 14.7804 9.82469 14.7606 9.62964 14.7211H9.56794C9.54074 14.7211 9.54074 14.7211 9.53334 14.7359L9.49634 14.7977L9.42964 14.9088L9.30124 14.8792L8.73089 14.7458L8.65189 14.8742V14.889L8.72099 14.9656L8.69139 15.0643C8.63954 15.1853 8.56544 15.294 8.47164 15.3878L8.32844 15.5409L8.19754 15.3779L8.10124 15.2569C7.99754 15.1211 7.97284 14.9434 8.03214 14.7829L7.87164 14.8495L7.80004 14.6915L7.76054 14.5804C7.65929 14.3458 7.73584 14.0742 7.94074 13.9261L8.40004 13.6792L8.83704 13.7656C8.83704 13.7236 8.86424 13.573 8.87659 13.5359H8.85189L8.60494 13.6298L8.35804 13.4619C8.30864 13.4125 8.30619 13.331 8.35804 13.2792L8.59259 12.9236L7.99754 12.1829L8.88889 12.5335L8.95064 12.4594L9.07409 12.3113L9.21484 12.4446C9.25189 12.4816 9.27654 12.5261 9.28889 12.5779C9.53584 12.6767 9.99259 12.9656 10.0296 13.4347L9.88889 13.4915C9.90619 13.5162 9.92844 13.5359 9.95559 13.5483L10.6074 13.6125L10.6667 13.5952C10.7778 13.5532 10.8963 13.531 11.0148 13.5285C11.1333 13.5285 11.2494 13.5557 11.3556 13.6076C11.4025 13.5903 11.4543 13.5804 11.5037 13.5779H11.5358C11.884 13.5779 12.0593 13.8397 12.1975 14.0471L12.2691 14.1508C12.3901 14.3236 12.5506 14.5755 12.558 14.5853L12.6296 14.6964L12.5407 14.8001C12.4593 14.9088 12.3309 14.9705 12.1951 14.9705C12.1556 14.973 12.1161 14.973 12.0765 14.9705C12.042 14.9631 12.0074 14.9532 11.9728 14.9384C11.9728 14.973 11.9728 15.015 11.9531 15.0495L11.8519 15.6322C12.5235 15.4964 12.9975 14.894 12.9704 14.2076L12.9679 11.9755ZM7.03459 11.7952H11.6494C11.4617 11.5977 11.3975 11.3138 11.4815 11.0545C11.4198 11.0249 11.3605 10.9854 11.3086 10.9409C11.1284 11.0742 10.5679 11.4742 10.4346 11.5755L10.4049 11.5952L8.59259 11.2742H8.55559C8.49629 11.2767 8.43704 11.2767 8.37779 11.2742C8.36049 11.3557 8.28889 11.4125 8.20744 11.4125H8.17779C8.08149 11.3952 8.01484 11.3039 8.02964 11.2076V11.1681C7.79509 11.0002 7.68399 10.7088 7.74569 10.4273V10.3952L7.77284 10.3755C7.77284 10.3755 7.80744 10.3508 7.85434 10.3236L7.72349 10.3039C7.67409 10.294 7.64199 10.2496 7.64939 10.2002C7.65679 10.1508 7.70124 10.1187 7.75064 10.1261H7.75309L8.06669 10.1755L8.09629 9.07179L8.56299 8.57794L8.85434 9.19029L8.54819 10.252L8.82469 10.2965C8.87409 10.3063 8.90619 10.3508 8.89879 10.4002C8.89139 10.4446 8.85434 10.4742 8.80989 10.4742H8.79509L8.57039 10.4372V10.4545C8.59509 10.4989 8.63214 10.5335 8.67904 10.5557L10.0593 10.5779L10.4123 10.2298C10.1432 10.136 9.95064 9.89894 9.91854 9.61499C9.74569 9.54834 9.60494 9.41994 9.52594 9.25449C9.45929 9.09894 9.44694 8.92364 9.49384 8.76069C9.27654 8.67424 9.07904 8.54339 8.91854 8.37549H6.86914C6.96794 8.61749 7.02469 8.87424 7.03459 9.13354V11.7952Z" fill="#FCE527"/>
<path d="M8.92861 12.9458C8.89896 12.9458 8.87181 12.968 8.86931 12.9977V13.0001C8.86686 13.0322 8.89156 13.0619 8.92366 13.0643H8.92611C8.96066 13.0643 8.98536 13.0372 8.98536 13.0051C8.98536 12.9705 8.96066 12.9458 8.92861 12.9458Z" fill="#222220"/>
<path d="M8.9258 12.9431C8.92825 12.9431 8.92825 12.9456 8.92825 12.9456C8.93075 12.9456 8.93075 12.9431 8.9332 12.9431H8.9258ZM12.9603 16.9925L12.6196 16.8616L12.7134 16.5085L12.8171 16.1233C12.3505 16.3629 11.8616 16.5554 11.3579 16.6987C11.111 16.7678 10.9332 16.7999 10.9332 16.7999V17.0493C10.6295 17.0987 10.3233 17.1258 10.0147 17.1283H9.9875C9.67885 17.1258 9.37265 17.0987 9.06895 17.0493V16.8024C9.06895 16.8024 8.8887 16.7678 8.6418 16.6987C8.1381 16.5554 7.6492 16.3629 7.18255 16.1233L7.2838 16.5085L7.38005 16.8616L7.03685 16.9925L6.6665 17.1332C7.17515 17.3974 7.706 17.6172 8.25415 17.79L8.1233 18.1456C8.71835 18.3727 9.3554 18.4838 9.9924 18.469H10.0073C10.6443 18.4838 11.2813 18.3727 11.8764 18.1456L11.748 17.79C12.2937 17.6172 12.8245 17.3974 13.3332 17.1332L12.9603 16.9925ZM7.07885 17.1554L7.6319 16.9703L7.4665 16.4271C7.82945 16.6073 8.20475 16.7579 8.5924 16.8764L8.3208 17.6172C7.89365 17.5036 7.47635 17.348 7.07885 17.1554ZM10.0147 18.2937L10.0023 18.2838C9.4591 18.2814 8.91835 18.2073 8.3949 18.0641L8.7282 17.1604C9.14305 17.2641 9.5702 17.3209 9.9998 17.3233H10.027C10.4566 17.3184 10.8838 17.2641 11.2986 17.1604L11.6319 18.0641C11.106 18.2122 10.5603 18.2888 10.0147 18.2937ZM11.6986 17.632V17.6246L11.427 16.8838C11.8147 16.7653 12.19 16.6147 12.5529 16.4345L12.3875 16.9777L12.948 17.1653C12.548 17.3604 12.1282 17.5184 11.6986 17.632ZM9.99985 2.89866C10.5579 2.88385 11.106 3.05175 11.5603 3.37521C11.632 3.00977 11.7678 2.65916 11.9628 2.34064L11.4023 2.40484L11.111 1.78014L10.5455 2.0715L9.99985 1.53076L9.45415 2.0715L8.8887 1.78014L8.59735 2.40484L8.03685 2.34064C8.23195 2.65916 8.36775 3.00977 8.43935 3.37521C8.89365 3.05175 9.4418 2.88385 9.99985 2.89866ZM8.57265 2.62212L8.72825 2.6394L8.7949 2.49866L8.98995 2.07891L9.3529 2.26656L9.49365 2.33817L9.60725 2.23446L9.99985 1.83693L10.3924 2.23446L10.506 2.34558L10.6468 2.27397L11.0073 2.08632L11.2048 2.50607L11.2715 2.64681L11.427 2.62953L11.5752 2.61224C11.5159 2.74805 11.4641 2.88879 11.4221 3.032C10.5307 2.57521 9.47145 2.57521 8.5801 3.032C8.5381 2.88879 8.48625 2.74805 8.427 2.61224L8.57265 2.62212ZM17.3234 7.99493L17.2567 7.91348C16.7974 7.32828 16.3604 6.77273 15.5802 6.51838C15.6123 6.49123 15.6444 6.46653 15.6789 6.44433C16.0493 6.23443 16.311 5.87398 16.395 5.45668C16.4369 5.07888 16.3308 4.70112 16.0987 4.39988L15.8518 4.09124L15.6962 4.45914C15.6962 4.48136 15.4221 5.07148 14.869 5.07148H14.7061C14.7357 4.68383 14.595 4.30112 14.3209 4.02457C13.9876 3.68383 13.5283 3.49371 13.0518 3.49618C12.9629 3.49618 12.874 3.50359 12.7876 3.51593L12.4098 3.59001L12.6444 3.89865C12.8271 4.14556 12.9925 4.57272 12.7974 4.80235C12.7036 4.88383 12.5974 4.94803 12.4814 4.99247C12.2345 5.10853 11.8789 5.27398 11.8789 5.68878C11.8789 5.95793 12.0888 6.23938 12.4666 6.47888C13.5802 7.18508 14.269 7.91348 14.5678 8.73323C15.0295 9.98258 14.4271 10.6937 13.8419 11.069L13.5802 11.2369L13.8098 11.4468C14.0147 11.6221 14.2666 11.7307 14.5357 11.7579H14.7604C14.99 11.7579 15.2172 11.7258 15.4369 11.6591C15.3826 11.7554 15.316 11.8468 15.2444 11.9307C14.911 12.3184 14.4172 12.5307 13.9061 12.5036H13.6863L13.669 12.7233C13.6666 13.032 13.8024 13.3233 14.0369 13.5233C14.0987 13.5777 14.1678 13.6221 14.2419 13.6567C13.8764 14.0122 13.669 14.4986 13.6616 15.0098C13.6616 15.2888 13.5974 15.5653 13.4764 15.8172L13.2295 16.1875H13.669C14.395 16.1875 14.9505 15.9875 15.3357 15.59C15.5357 15.3801 15.6839 15.1258 15.7703 14.8493C15.9135 14.9702 16.0814 15.0542 16.2641 15.0962C16.3505 15.1159 16.4394 15.1258 16.5283 15.1258C16.6616 15.1258 16.795 15.1085 16.9234 15.0789L17.2048 15.0048L17.0814 14.7431C16.9258 14.3258 16.9258 13.8641 17.0814 13.4468C17.1727 13.1752 17.2369 12.8937 17.2715 12.6073C17.4937 12.7209 17.7406 12.7777 17.99 12.7752C18.3999 12.7801 18.7826 12.5777 19.0048 12.2344L19.1406 11.9875L18.8937 11.8838C18.0666 11.5406 17.8839 10.6172 17.8468 10.1184C17.9283 10.1357 18.0098 10.1456 18.0937 10.148L18.1629 10.1949C19.0616 10.1949 19.3629 9.27888 19.3752 9.23938L19.4764 8.91593H19.1382C18.4271 8.89123 17.7629 8.55543 17.3234 7.99493ZM18.1653 9.94558H18.1308C17.9505 9.94803 17.7727 9.89863 17.6197 9.80483C17.6197 9.80483 17.4888 11.59 18.8197 12.1431V12.1505C18.6444 12.4172 18.3431 12.5752 18.0246 12.5702C17.6641 12.5925 17.316 12.4394 17.0888 12.1604C17.0962 12.5801 17.0271 12.9999 16.8863 13.3949C16.7061 13.8715 16.7061 14.3999 16.8863 14.8764C16.7752 14.9036 16.6641 14.9184 16.5505 14.9184C16.4814 14.9184 16.4098 14.911 16.3431 14.8937C16.0147 14.8147 15.753 14.5727 15.6468 14.2542C15.6468 14.2542 15.6987 15.9678 13.7011 15.9678H13.6863C13.8369 15.6814 13.916 15.3628 13.9135 15.0394C13.9999 13.7727 14.8592 13.5925 14.8592 13.5925C14.6221 13.5628 14.3974 13.4789 14.1999 13.3456C14.0197 13.1949 13.916 12.9727 13.911 12.7382C14.4888 12.7628 15.0468 12.5233 15.4246 12.0838C15.6518 11.8246 15.8024 11.5085 15.8666 11.1702C15.5481 11.4098 15.1555 11.5307 14.7579 11.5135H14.5555C14.3406 11.4912 14.1357 11.4073 13.9703 11.2665C14.7308 10.7727 15.2641 9.92828 14.7925 8.64678C14.4123 7.61963 13.5011 6.85173 12.5851 6.27398C12.2814 6.08628 12.0987 5.87398 12.0987 5.69123C12.0987 5.26163 12.7085 5.24928 12.9604 4.9505C13.2493 4.6147 13.069 4.07149 12.8172 3.74556C12.8888 3.73322 12.9629 3.72828 13.0345 3.72828C13.4468 3.72334 13.8444 3.88877 14.1308 4.18507C14.4221 4.46161 14.5332 4.87889 14.4221 5.26408L14.5555 5.29123C14.6369 5.30608 14.7184 5.31348 14.8024 5.31593H14.8567C15.5802 5.31593 15.9061 4.55791 15.9061 4.55791C15.9061 4.55791 16.6764 5.50608 15.5431 6.24678C15.3481 6.37273 15.2616 6.49373 15.2962 6.61718L15.3135 6.69863L15.395 6.71348C16.2172 6.93568 16.6295 7.50358 17.1406 8.14803C17.6246 8.76283 18.3555 9.13323 19.1382 9.16038H19.153C19.153 9.16038 18.9061 9.94558 18.1653 9.94558Z" fill="#222220"/>
<path d="M16.5802 6.62953C16.8567 6.78753 17.0962 7.00238 17.2839 7.25913C17.4246 7.47643 17.6246 7.64928 17.8617 7.75298C17.9506 7.78263 18.0469 7.79743 18.1407 7.79743C18.5185 7.79743 18.8641 7.58263 19.037 7.24678L19.1802 6.92583L18.832 6.90608C18.4567 6.83693 18.1185 6.64433 17.8691 6.35543C17.6839 6.15543 17.4246 6.03938 17.1506 6.03693C16.9382 6.03938 16.7333 6.10358 16.5555 6.21718L16.2345 6.44188L16.5802 6.62953ZM17.158 6.27643L17.1506 6.27888C17.3604 6.27888 17.558 6.37028 17.6987 6.52583C17.9876 6.85668 18.3827 7.07643 18.8172 7.14803C18.6839 7.39743 18.4246 7.55298 18.1407 7.55543C18.0716 7.55543 18.0024 7.54308 17.9358 7.52088C17.5358 7.38508 17.395 6.78013 16.7012 6.41473C16.837 6.32583 16.995 6.27888 17.158 6.27643ZM16.7432 9.81223L16.7383 9.80728C16.5358 8.17763 15.3531 6.99988 14.037 6.28628C13.916 6.21963 13.8025 6.16533 13.6938 6.11343C14.237 6.22458 14.8025 6.09123 15.2395 5.75048C15.2395 5.75048 14.4765 6.31098 12.916 5.80233C13.3481 6.08383 14.1876 6.47888 14.9555 7.12088C16.8716 8.80483 15.5012 10.4493 15.5012 10.4493C16.0741 9.90603 16.2741 9.07643 16.0173 8.33073C16.4222 9.00483 16.6173 9.78508 16.5753 10.5702C16.521 11.8641 15.8025 12.9949 15.0617 13.8962C14.8395 14.1801 14.6864 14.5134 14.6222 14.869C14.7481 14.5159 14.9383 14.19 15.1852 13.9085C15.9876 12.9678 16.6667 11.9925 16.7629 10.5875C16.8469 10.8344 17.1876 11.553 17.7309 11.8221C17.7309 11.8221 17.0494 11.4122 16.7432 9.81223ZM6.52097 15.8345C6.40247 15.5826 6.33827 15.3061 6.33577 15.0271C6.32837 14.516 6.11852 14.0295 5.75307 13.674C5.82712 13.6394 5.89627 13.595 5.95802 13.5407C6.19257 13.3407 6.32837 13.0493 6.32592 12.7407L6.31107 12.5209H6.08887C5.58022 12.5456 5.08642 12.3357 4.75307 11.9481C4.68146 11.8641 4.61726 11.7728 4.56047 11.6765C4.78023 11.7431 5.00737 11.7752 5.23702 11.7752H5.46172C5.73087 11.7481 5.98517 11.6394 6.19012 11.4641L6.41972 11.2542L6.15802 11.0863C5.57037 10.711 4.97035 9.99993 5.43207 8.75053C5.73087 7.93818 6.41972 7.20483 7.54317 6.49868C7.92097 6.25178 8.12837 5.97768 8.12837 5.70858C8.12837 5.29373 7.78022 5.12833 7.52592 5.01228C7.40987 4.96781 7.30367 4.90362 7.20987 4.82213C7.01232 4.59251 7.17777 4.15547 7.36292 3.91843L7.60987 3.60979L7.22962 3.53572C7.14317 3.5209 7.05432 3.51596 6.96542 3.51596C6.48392 3.50115 6.01972 3.68633 5.67897 4.0246C5.39997 4.29868 5.25432 4.68386 5.28147 5.07398H5.13332C4.57776 5.07398 4.31603 4.48633 4.30615 4.46164L4.1506 4.09374L3.90368 4.40238C3.67405 4.70362 3.56788 5.08138 3.60986 5.45918C3.69381 5.87648 3.95307 6.23693 4.32344 6.44683C4.358 6.46903 4.39257 6.49373 4.4222 6.52088C3.64195 6.76783 3.20492 7.33078 2.74566 7.91598L2.67899 7.99993C2.23949 8.56043 1.57282 8.89623 0.861708 8.92088H0.523438L0.627138 9.24438C0.627138 9.28388 0.938253 10.1999 1.83948 10.1999H1.88393C1.96788 10.1974 2.04936 10.1876 2.13084 10.1703C2.09381 10.6641 1.91109 11.5925 1.08146 11.9357L0.834548 12.0394L0.970348 12.2863C1.19257 12.6295 1.57529 12.832 1.98516 12.8271C2.23455 12.8295 2.47899 12.7727 2.70121 12.6592C2.73578 12.9456 2.79998 13.2271 2.89134 13.4987C3.04689 13.916 3.04689 14.3777 2.89134 14.795L2.76788 15.0567L3.04936 15.1308C3.17776 15.1604 3.31109 15.1777 3.44442 15.1777C3.53331 15.1777 3.6222 15.1678 3.70862 15.1481C3.89134 15.1061 4.05924 15.0221 4.20245 14.9011C4.28887 15.1777 4.43702 15.432 4.63702 15.6419C5.02467 16.0394 5.58022 16.2369 6.30367 16.2394H6.74317L6.52097 15.8345ZM6.30862 15.9727C4.31109 15.9727 4.36047 14.2592 4.36047 14.2592C4.2543 14.5777 3.99257 14.8197 3.66418 14.8987C3.59751 14.916 3.5259 14.9234 3.45677 14.9234C3.34319 14.9234 3.23208 14.9086 3.12344 14.8814C3.30368 14.4048 3.30368 13.8765 3.12344 13.3999C2.98269 13.0048 2.91603 12.5851 2.92344 12.1653C2.69628 12.4444 2.34813 12.5974 1.98763 12.5752H1.97529C1.6543 12.5802 1.35307 12.4197 1.17776 12.153C2.50862 11.5999 2.37776 9.81473 2.37776 9.81473C2.22467 9.90858 2.04689 9.95793 1.86665 9.95548H1.83948C1.09874 9.95548 0.851833 9.17028 0.851833 9.17028H0.866648C1.64936 9.14558 2.38269 8.77523 2.86665 8.16043C3.37529 7.51598 3.7901 6.94808 4.61232 6.72583L4.69381 6.71103L4.71109 6.62953C4.73331 6.50363 4.64689 6.38263 4.46418 6.25918C3.33084 5.51843 4.10121 4.57028 4.10121 4.57028C4.10121 4.57028 4.4222 5.32833 5.15062 5.32833H5.18517C5.26912 5.32583 5.35062 5.31843 5.43207 5.30363L5.56542 5.27648C5.45182 4.89127 5.56542 4.47399 5.85677 4.19744C6.14317 3.90115 6.54072 3.73572 6.95307 3.74065C7.02467 3.74065 7.09877 3.74559 7.17037 3.75794C6.92342 4.08633 6.74072 4.62954 7.02962 4.96288C7.27652 5.25178 7.88887 5.26413 7.88887 5.70363C7.88887 5.88633 7.71852 6.09868 7.41482 6.28878C6.49627 6.86658 5.58517 7.63448 5.20737 8.66163C4.73578 9.94313 5.26912 10.795 6.02962 11.2814C5.86417 11.4197 5.65922 11.5061 5.44442 11.5283H5.23947C4.84195 11.5456 4.44936 11.4246 4.13084 11.1851C4.19504 11.5234 4.34566 11.8394 4.57035 12.0987C4.94813 12.5357 5.50862 12.7777 6.08642 12.753C6.08147 12.9876 5.97777 13.2098 5.79752 13.3604C5.59997 13.4937 5.37527 13.5777 5.13827 13.6073C5.13827 13.6073 5.99997 13.7826 6.09382 15.0542C6.09132 15.3777 6.17037 15.6962 6.32097 15.9826L6.30862 15.9727Z" fill="#222220"/>
<path d="M1.85684 7.79505H1.8593C1.95313 7.79505 2.04943 7.78025 2.13832 7.75065C2.37535 7.6469 2.57535 7.4741 2.71609 7.2568C2.90128 7 3.14079 6.7852 3.41733 6.62715L3.76301 6.442L3.44202 6.2173C3.26424 6.1037 3.0593 6.0395 2.84943 6.03705C2.57535 6.0395 2.31609 6.15555 2.13091 6.35805C1.884 6.64445 1.54325 6.8395 1.17042 6.90865L0.822266 6.92595L0.963006 7.2469C1.13585 7.58275 1.47906 7.7926 1.85684 7.79505ZM2.30128 6.52595C2.43955 6.3704 2.63708 6.279 2.84696 6.279C3.00745 6.2815 3.16548 6.3309 3.30128 6.4173C2.60251 6.79015 2.45684 7.38765 2.06671 7.52345C2.00251 7.5457 1.93338 7.55805 1.86424 7.55805C1.57782 7.55805 1.31609 7.4 1.18276 7.14815C1.61733 7.07655 2.01239 6.8568 2.30128 6.52595ZM3.4297 10.5802C3.38772 9.79505 3.58031 9.0148 3.98772 8.34075C3.73093 9.0864 3.93093 9.91605 4.50377 10.4593C4.50377 10.4593 3.13093 8.8148 5.04945 7.13085C5.81735 6.4889 6.6544 6.09385 7.0865 5.81235C5.526 6.321 4.76303 5.7605 4.76303 5.7605C5.20005 6.10125 5.76305 6.23455 6.30625 6.12345C6.1976 6.1753 6.084 6.2321 5.96305 6.2963C4.64698 7.01235 3.45686 8.19015 3.2618 9.81975V9.8074C2.95562 11.4074 2.27414 11.8173 2.27414 11.8173C2.81488 11.5506 3.15809 10.8296 3.23957 10.5827C3.33093 11.9901 4.01735 12.9654 4.81982 13.9037C5.06425 14.1852 5.25685 14.5111 5.3828 14.8642C5.3161 14.5111 5.16305 14.1778 4.93834 13.8963C4.1976 12.9951 3.48155 11.8642 3.4297 10.5802ZM9.5482 7.6074C9.6346 7.52345 9.7556 7.48395 9.8766 7.49875V7.9654C9.87415 8.08145 9.8445 8.1926 9.7877 8.2938H10.2543C10.1976 8.1926 10.1679 8.08145 10.1655 7.9654V7.49875C10.284 7.48395 10.405 7.52345 10.4914 7.6074V7.28395H9.5482V7.6074ZM9.35315 5.3679H9.3482C9.4198 5.42965 9.50375 5.479 9.59515 5.50865L9.6544 5.5358V5.22965L9.10625 5C9.1334 5.1531 9.2223 5.2864 9.35315 5.3679ZM10.6544 5.36545L10.6519 5.3679C10.7828 5.2864 10.8716 5.1531 10.8988 5L10.3507 5.22965V5.53335L10.4074 5.50615C10.4988 5.47655 10.5828 5.42715 10.6544 5.36545Z" fill="#222220"/>
<path d="M11.6372 4.1285C11.6372 3.66677 10.8594 3.25195 10.0026 3.25195C9.14584 3.25195 8.36809 3.66677 8.36809 4.1285L8.38534 4.24208L8.72859 6.21737L8.38534 6.41737L7.48909 6.92602C7.48909 6.92602 7.28909 7.02972 7.19524 7.09147C6.85699 7.33837 6.78534 7.66922 6.98044 7.81247C7.02979 7.47662 7.32364 7.22972 7.66439 7.23962C7.94834 7.24702 8.21254 7.39022 8.37304 7.62477C8.42239 7.68407 8.46684 7.74827 8.50634 7.81247C8.55819 7.89642 8.61004 7.97047 8.66189 8.04207H6.37549C6.56809 8.37292 6.67919 8.74577 6.70389 9.12847V14.2075C6.70389 15.4421 7.64954 16.0223 8.67919 16.0223C9.46934 16.0223 9.57549 15.9853 10.01 16.4199C10.4446 15.9853 10.5508 16.0223 11.3409 16.0223C12.3631 16.0223 13.3162 15.4371 13.3162 14.2075V9.13342C13.3409 8.75072 13.452 8.37787 13.6446 8.04702H11.3335C11.3853 7.97542 11.4372 7.90132 11.4891 7.81737C11.531 7.75317 11.5755 7.68897 11.6224 7.62972C11.7853 7.39517 12.0495 7.25197 12.3335 7.24452C12.6742 7.23467 12.9681 7.48157 13.0174 7.81737C13.215 7.67662 13.1434 7.32357 12.8026 7.09642C12.7113 7.03222 12.5113 6.93097 12.5113 6.93097L11.6224 6.40752L11.2792 6.20752L11.6224 4.2322L11.6372 4.1285ZM8.69894 4.35566L9.90389 4.76306V6.65442L9.01744 6.18527L8.69894 4.35566ZM6.86929 8.37542H8.94584C9.10634 8.54332 9.30389 8.67662 9.52119 8.76057C9.47424 8.92357 9.48659 9.09887 9.55329 9.25442C9.63229 9.41987 9.77304 9.54827 9.94584 9.61492C9.97794 9.89887 10.1705 10.1359 10.4397 10.2297C10.2915 10.3804 10.1458 10.5211 10.0866 10.5779L8.70634 10.5557C8.65944 10.5334 8.62239 10.4989 8.59769 10.4544V10.4371L8.82239 10.4742H8.83724C8.88164 10.4742 8.91869 10.4445 8.92609 10.4001C8.93349 10.3507 8.90139 10.3063 8.85204 10.2964L8.57549 10.252L8.88164 9.19022L8.59029 8.57787L8.12364 9.07172L8.09399 10.1754L7.78044 10.126C7.73104 10.1162 7.68659 10.1483 7.67674 10.1976V10.2001C7.66929 10.2495 7.70139 10.2939 7.75079 10.3038L7.88164 10.3236C7.83474 10.3507 7.80264 10.3705 7.80019 10.3754L7.77304 10.3952V10.4273C7.71129 10.7087 7.82489 11.0001 8.05699 11.168V11.2075C8.04214 11.3038 8.10884 11.3952 8.20514 11.4124H8.23474C8.31624 11.4124 8.38784 11.3557 8.40514 11.2742C8.46439 11.2766 8.52119 11.2766 8.58044 11.2742H8.61744L10.4273 11.6026L10.457 11.5828C10.6002 11.4816 11.1508 11.089 11.331 10.9483C11.3829 10.9927 11.4421 11.0322 11.5039 11.0618C11.4199 11.3211 11.4841 11.605 11.6718 11.8026H7.03474V9.13342C7.02489 8.87417 6.96809 8.61737 6.86929 8.37542ZM11.1755 10.8174C10.9878 10.9557 10.5261 11.2915 10.3582 11.41L8.71624 11.1236V11.0791C8.74339 10.968 8.75819 10.8544 8.76069 10.7408L10.1434 10.7631L10.1705 10.7359C10.1928 10.7137 10.6298 10.2915 10.852 10.047C10.9113 10.1211 10.9804 10.1828 11.0594 10.2322C11.0199 10.4347 11.0619 10.6445 11.1755 10.8174ZM8.43229 10.5211V10.5285C8.46934 10.5976 8.52364 10.6569 8.59029 10.6964C8.58784 10.7976 8.57794 10.8964 8.56069 10.9952C8.56069 11.0174 8.56069 11.0396 8.54339 11.0618V11.0964C8.42979 11.0964 8.31869 11.0791 8.21004 11.0445C8.01254 10.9384 7.90139 10.7211 7.93349 10.4989C8.02239 10.4371 8.12364 10.3976 8.22979 10.3828C8.32119 10.3804 8.40264 10.4347 8.43229 10.5211ZM8.26189 10.1927L8.28909 9.14827L8.53599 8.90132L8.68659 9.21492L8.39279 10.2322L8.26189 10.1927ZM11.1631 15.6939H10.9261L11.1113 15.089C11.1409 15.005 10.9878 14.8964 10.9236 14.8001C11.0742 14.8915 11.2298 14.9729 11.3903 15.047C11.3903 15.0668 11.1631 15.6939 11.1631 15.6939ZM11.7977 15.0174L11.7779 15.0001L11.6495 15.6668C11.5681 15.6668 11.4816 15.6841 11.4026 15.689L11.5384 15.047C11.5779 14.8569 11.0668 14.8001 10.815 14.4223C10.6495 14.5606 10.4372 14.6248 10.2249 14.6026C10.0372 14.6001 9.85204 14.5803 9.66929 14.5433C9.63724 14.5408 9.60514 14.5408 9.57304 14.5433C9.49649 14.5384 9.42239 14.5779 9.38289 14.6445L9.34584 14.7063L8.64214 14.5359L8.47424 14.8273C8.44709 14.8668 8.45204 14.9211 8.48659 14.9557L8.53349 15.0075C8.48659 15.0989 8.42734 15.1828 8.35574 15.2544L8.25204 15.126C8.17304 14.9976 8.18044 14.8322 8.26934 14.7112L8.54584 14.2445L9.13599 14.3334L9.04464 14.1236C8.92119 13.847 9.10884 13.4939 9.12859 13.2915C9.12859 13.3532 9.06439 13.3655 9.00019 13.3655H8.82979C8.81744 13.3631 8.80264 13.3631 8.79029 13.3655L8.62979 13.4618L8.50389 13.3458C8.48414 13.3087 8.49154 13.2643 8.52119 13.2371L8.81254 12.9087L8.46684 12.5063L8.96069 12.7532L9.10884 12.5754C9.14834 12.6149 9.13104 12.7186 9.13104 12.7186C9.48909 12.8075 9.73844 13.1334 9.72859 13.5038V13.5754C9.77794 13.6544 9.85699 13.7087 9.94584 13.731L10.615 13.7976C10.7483 13.7557 10.8841 13.7285 11.0224 13.7112C11.1409 13.7112 11.2594 13.7483 11.3582 13.8124C11.4051 13.7804 11.4619 13.7606 11.5187 13.7581H11.5409C11.8397 13.7581 11.9656 14.0297 12.1261 14.252C12.2471 14.4223 12.41 14.6791 12.41 14.6791C12.3631 14.7483 12.2866 14.7902 12.2026 14.7902C12.173 14.7927 12.1458 14.7927 12.1162 14.7902C11.7952 14.731 11.7483 14.0692 11.5656 14.0174H11.536C11.5014 14.0174 11.4693 14.0371 11.452 14.0692C11.536 14.2939 11.4866 14.3853 11.5779 14.5631C11.6446 14.6692 11.7286 14.7655 11.8249 14.847C11.8249 14.847 11.8125 14.9458 11.7977 15.0174ZM8.20019 14.3705H8.19524L8.22489 14.447C8.20514 14.5137 7.97794 14.61 7.97794 14.61L7.92859 14.5013C7.86439 14.3458 7.91129 14.168 8.04709 14.0668L8.41994 13.8396L8.81744 13.9236C8.81499 14.0026 8.83969 14.0791 8.88659 14.1433L8.46929 14.0643L8.22239 14.2371C8.18289 14.2717 8.17549 14.326 8.20019 14.3705ZM12.9755 14.21C13.0026 14.8964 12.5261 15.4989 11.852 15.6322L11.9656 15.0347C11.9656 15.0001 11.9779 14.9581 11.9829 14.9236C12.0174 14.9384 12.052 14.9483 12.0866 14.9557C12.1261 14.9581 12.1656 14.9581 12.2051 14.9557C12.3409 14.9557 12.4693 14.8939 12.5508 14.7853L12.6397 14.6816L12.5656 14.5804C12.5656 14.5804 12.4002 14.3186 12.2767 14.1458L12.2076 14.0421C12.0693 13.8347 11.894 13.5729 11.5458 13.5729H11.5137C11.4644 13.5754 11.4125 13.5853 11.3656 13.6026C11.2594 13.5507 11.1434 13.5236 11.0249 13.5236C10.9063 13.526 10.7878 13.5483 10.6767 13.5902L10.6174 13.6075L9.96559 13.5433C9.93844 13.531 9.91624 13.5112 9.89894 13.4865L10.0397 13.4297C10.0002 12.9581 9.54584 12.6692 9.29894 12.5729C9.28659 12.5211 9.26189 12.4766 9.22489 12.4396L9.08414 12.3063L8.96069 12.4544L8.89894 12.5285L7.98534 12.1532L8.58044 12.8939L8.34584 13.2495C8.29649 13.2989 8.29399 13.3804 8.34584 13.4322L8.59279 13.6001L8.83969 13.5063H8.86439C8.86439 13.5433 8.83724 13.6939 8.82489 13.7359L8.39524 13.6618L7.93599 13.9087C7.72364 14.0618 7.64954 14.3433 7.76069 14.5804L7.81254 14.6915L7.88414 14.8495L8.04464 14.7828C7.98534 14.9433 8.01004 15.1211 8.11374 15.2569L8.21004 15.3804L8.33844 15.5433L8.48164 15.3902C8.57549 15.2964 8.64954 15.1878 8.70139 15.0668L8.73104 14.968L8.66189 14.8915V14.8766L8.74094 14.7483L9.31129 14.8816L9.43969 14.9112L9.50884 14.7976L9.54584 14.7359C9.54584 14.7236 9.54584 14.7211 9.58044 14.7211H9.64214C9.83724 14.7606 10.0347 14.7804 10.2323 14.7828C10.3656 14.7902 10.4989 14.7754 10.6273 14.7359L10.9434 15.0964L10.7557 15.6742V15.7087C10.4742 15.7038 10.2051 15.8199 10.015 16.0248C9.71129 15.7236 9.49649 15.6915 8.68414 15.6915C7.70884 15.6915 7.04954 15.1211 7.04954 14.21V11.9878H12.9755V14.21ZM13.136 8.37542C13.0347 8.61492 12.9804 8.87172 12.9705 9.13342V10.7976C12.7557 10.7507 12.5952 10.568 12.5804 10.3483V10.2717H12.5063C12.3779 10.2618 12.2594 10.2026 12.1705 10.1112C12.0619 9.98527 12.0026 9.82727 12.0002 9.66182C11.894 9.83467 11.9039 10.0569 12.0273 10.2199C12.1236 10.3408 12.2644 10.4223 12.4174 10.4421C12.4619 10.7285 12.6915 10.9507 12.9779 10.9878V11.8026H11.9409C11.6693 11.6643 11.5557 11.3408 11.6767 11.0618L11.7162 10.9729L11.6249 10.9384C11.3286 10.8347 11.1656 10.5162 11.2594 10.2149L11.2792 10.1408L11.21 10.1087C10.9508 9.95812 10.8076 9.66432 10.8495 9.36802C10.7137 9.50627 10.6792 9.71617 10.7656 9.88897C10.7162 9.94577 10.652 10.0124 10.5804 10.0865C10.3212 10.0322 10.1335 9.80752 10.1236 9.54332V9.48157L10.0668 9.45937C9.91624 9.41492 9.79279 9.31122 9.72119 9.17292C9.67424 9.05937 9.66439 8.93097 9.69649 8.81242C9.74584 8.82232 9.79524 8.82972 9.84464 8.83467C9.89399 8.83712 9.94584 8.83712 9.99524 8.83467C10.3952 8.83467 10.7755 8.66182 11.0421 8.36552L13.136 8.37542ZM11.536 6.69147L11.9409 6.93837L12.0421 6.99762C11.8323 7.05442 11.6421 7.16802 11.4915 7.32602L11.4742 7.34082C11.4397 7.37787 11.4076 7.41492 11.3755 7.45442L11.3557 7.47912C11.3236 7.51862 11.294 7.56057 11.2668 7.60502L11.252 7.62727C11.2174 7.67662 11.1853 7.73097 11.1533 7.78527C10.9286 8.23222 10.4915 8.53097 9.99524 8.58037C9.49894 8.53097 9.06189 8.23222 8.83724 7.78527C8.80514 7.73097 8.77304 7.67912 8.74094 7.62727L8.72119 7.60012L8.64214 7.47172L8.61994 7.44452C8.58784 7.40502 8.55574 7.36802 8.52364 7.33342L8.50634 7.31617C8.35574 7.15812 8.16559 7.04452 7.95574 6.98777L8.05944 6.92847L8.46684 6.68157L8.88414 6.43467L9.99769 7.03962L11.1113 6.45442L11.536 6.69147ZM10.9878 6.19762L10.1014 6.66432V4.76553L11.3039 4.35813L10.9878 6.19762ZM10.0002 4.56553L8.68164 4.03714C8.79279 3.77047 9.31129 3.54331 10.0002 3.54331C10.6891 3.54331 11.2076 3.77047 11.3187 4.03714L10.0002 4.56553Z" fill="#222220"/>
</svg>
