<svg width="30" height="20" viewBox="0 0 30 20" fill="none" xmlns="http://www.w3.org/2000/svg">
<rect x="0.5" y="0.5" width="28.1667" height="19" rx="5.5" fill="white" stroke="#D9D9D9"/>
<path fill-rule="evenodd" clip-rule="evenodd" d="M8.85438 13.5487H7.08745L5.76246 8.49381C5.69957 8.26128 5.56604 8.05572 5.36962 7.95883C4.87943 7.71535 4.33927 7.52158 3.75 7.42385V7.22924H6.59639C6.98924 7.22924 7.28387 7.52158 7.33297 7.8611L8.02045 11.5074L9.78652 7.22924H11.5044L8.85438 13.5487ZM12.4865 13.5487H10.8177L12.1918 7.22924H13.8606L12.4865 13.5487ZM16.0195 8.97992C16.0686 8.63956 16.3632 8.44495 16.7069 8.44495C17.2471 8.39608 17.8355 8.49381 18.3266 8.73645L18.6212 7.37584C18.1301 7.18122 17.59 7.0835 17.0998 7.0835C15.4802 7.0835 14.3016 7.95884 14.3016 9.1737C14.3016 10.0979 15.1364 10.5832 15.7257 10.8755C16.3632 11.167 16.6087 11.3616 16.5596 11.6531C16.5596 12.0904 16.0686 12.285 15.5784 12.285C14.9891 12.285 14.3999 12.1392 13.8606 11.8958L13.5659 13.2572C14.1552 13.4998 14.7927 13.5976 15.382 13.5976C17.198 13.6456 18.3266 12.7711 18.3266 11.4585C18.3266 9.80556 16.0195 9.70867 16.0195 8.97992ZM24.1667 13.5487L22.8417 7.22924H21.4185C21.1239 7.22924 20.8292 7.42385 20.731 7.71535L18.2775 13.5487H19.9953L20.3382 12.6253H22.4488L22.6453 13.5487H24.1667ZM21.664 8.93106L22.1542 11.3128H20.7801L21.664 8.93106Z" fill="#172B85"/>
</svg>
